<svg width="100" height="75" viewBox="0 0 100 75" fill="none" xmlns="http://www.w3.org/2000/svg">
<path d="M31.7035 46.8633C30.4846 46.8633 29.2931 47.2247 28.2796 47.9019C27.2661 48.5791 26.4761 49.5417 26.0097 50.6678C25.5432 51.7939 25.4211 53.0331 25.659 54.2286C25.8968 55.4241 26.4837 56.5223 27.3456 57.3842C28.2075 58.2461 29.3057 58.8331 30.5012 59.0709C31.6967 59.3087 32.9359 59.1866 34.062 58.7202C35.1882 58.2537 36.1507 57.4638 36.8279 56.4503C37.5051 55.4368 37.8665 54.2452 37.8665 53.0263C37.8647 51.3923 37.2148 49.8258 36.0594 48.6704C34.904 47.515 33.3375 46.8651 31.7035 46.8633V46.8633ZM31.7035 55.8707C31.1409 55.8707 30.591 55.7039 30.1232 55.3914C29.6555 55.0788 29.2909 54.6346 29.0756 54.1148C28.8603 53.5951 28.804 53.0231 28.9137 52.4714C29.0235 51.9196 29.2944 51.4128 29.6922 51.0149C30.09 50.6171 30.5968 50.3462 31.1486 50.2365C31.7004 50.1267 32.2723 50.1831 32.7921 50.3983C33.3118 50.6136 33.7561 50.9782 34.0686 51.446C34.3812 51.9138 34.548 52.4637 34.548 53.0263C34.548 53.7807 34.2483 54.5042 33.7149 55.0376C33.1814 55.5711 32.4579 55.8707 31.7035 55.8707V55.8707Z" fill="#332F2E"/>
<path d="M65.8334 46.8633C64.6145 46.8633 63.4229 47.2247 62.4094 47.9019C61.3959 48.5791 60.606 49.5417 60.1395 50.6678C59.6731 51.7939 59.551 53.0331 59.7888 54.2286C60.0266 55.4241 60.6136 56.5223 61.4755 57.3842C62.3374 58.2461 63.4356 58.8331 64.6311 59.0709C65.8266 59.3087 67.0657 59.1866 68.1919 58.7202C69.318 58.2537 70.2806 57.4638 70.9578 56.4503C71.635 55.4368 71.9964 54.2452 71.9964 53.0263C71.9946 51.3923 71.3447 49.8258 70.1893 48.6704C69.0339 47.515 67.4674 46.8651 65.8334 46.8633V46.8633ZM65.8334 55.8707C65.2708 55.8707 64.7209 55.7039 64.2531 55.3914C63.7853 55.0788 63.4208 54.6346 63.2055 54.1148C62.9902 53.5951 62.9339 53.0231 63.0436 52.4714C63.1534 51.9196 63.4243 51.4128 63.8221 51.0149C64.2199 50.6171 64.7267 50.3462 65.2785 50.2365C65.8303 50.1267 66.4022 50.1831 66.9219 50.3983C67.4417 50.6136 67.8859 50.9782 68.1985 51.446C68.511 51.9138 68.6779 52.4637 68.6779 53.0263C68.6779 53.7807 68.3782 54.5042 67.8447 55.0376C67.3113 55.5711 66.5878 55.8707 65.8334 55.8707Z" fill="#332F2E"/>
<path d="M74.0611 41.7712L62.9914 39.7516L53.5674 31.9323C52.6334 31.1651 51.4624 30.7452 50.2537 30.7442H36.3696C35.5872 30.7423 34.8145 30.9174 34.1093 31.2563C33.4041 31.5953 32.7847 32.0893 32.2974 32.7014L26.2779 39.7516H22.2208C21.0896 39.7529 20.0051 40.2028 19.2052 41.0027C18.4053 41.8026 17.9554 42.8871 17.9541 44.0183V49.2332C17.9556 50.6157 18.5056 51.9413 19.4832 52.9189C20.4608 53.8966 21.7864 54.4465 23.1689 54.448H24.2528C24.0424 53.3508 24.077 52.2207 24.3541 51.1385C24.6311 50.0562 25.1438 49.0485 25.8555 48.1874C26.5672 47.3262 27.4604 46.633 28.4711 46.1571C29.4818 45.6812 30.5852 45.4344 31.7023 45.4344C32.8195 45.4344 33.9229 45.6812 34.9336 46.1571C35.9443 46.633 36.8374 47.3262 37.5491 48.1874C38.2608 49.0485 38.7735 50.0562 39.0506 51.1385C39.3277 52.2207 39.3622 53.3508 39.1519 54.448H58.3864C58.176 53.3508 58.2106 52.2207 58.4876 51.1385C58.7647 50.0562 59.2774 49.0485 59.9891 48.1874C60.7008 47.3262 61.5939 46.633 62.6046 46.1571C63.6154 45.6812 64.7187 45.4344 65.8359 45.4344C66.953 45.4344 68.0564 45.6812 69.0671 46.1571C70.0779 46.633 70.971 47.3262 71.6827 48.1874C72.3944 49.0485 72.9071 50.0562 73.1841 51.1385C73.4612 52.2207 73.4958 53.3508 73.2854 54.448H73.4211C74.5523 54.4467 75.6368 53.9968 76.4367 53.1969C77.2366 52.397 77.6866 51.3125 77.6878 50.1813V45.9895C77.6929 44.9674 77.3288 43.9779 76.6625 43.2028C75.9962 42.4278 75.0724 41.9194 74.0611 41.7712V41.7712ZM38.8135 38.3294C38.8135 38.7066 38.6636 39.0683 38.3969 39.3351C38.1302 39.6018 37.7685 39.7516 37.3913 39.7516H31.1388C31.0028 39.7517 30.8697 39.7128 30.7551 39.6395C30.6406 39.5662 30.5495 39.4616 30.4926 39.3382C30.4356 39.2147 30.4153 39.0775 30.434 38.9428C30.4527 38.8081 30.5096 38.6816 30.598 38.5783L34.7362 33.7308C34.8698 33.5746 35.0357 33.4493 35.2224 33.3633C35.4091 33.2774 35.6123 33.2329 35.8178 33.2331H37.3913C37.7685 33.2331 38.1302 33.3829 38.3969 33.6496C38.6636 33.9163 38.8135 34.2781 38.8135 34.6553V38.3294ZM45.9246 44.9665H44.0283C43.6511 44.9665 43.2894 44.8166 43.0227 44.5499C42.756 44.2832 42.6061 43.9214 42.6061 43.5442C42.6061 43.167 42.756 42.8053 43.0227 42.5386C43.2894 42.2718 43.6511 42.122 44.0283 42.122H45.9246C46.3018 42.122 46.6636 42.2718 46.9303 42.5386C47.197 42.8053 47.3469 43.167 47.3469 43.5442C47.3469 43.9214 47.197 44.2832 46.9303 44.5499C46.6636 44.8166 46.3018 44.9665 45.9246 44.9665ZM57.1222 39.7865L43.5509 39.7549C43.1743 39.7541 42.8134 39.6038 42.5474 39.3372C42.2814 39.0706 42.132 38.7093 42.132 38.3327V34.6553C42.132 34.2781 42.2819 33.9163 42.5486 33.6496C42.8153 33.3829 43.1771 33.2331 43.5543 33.2331H50.3748C50.6945 33.2331 51.0048 33.3408 51.2558 33.5388L57.5643 38.5166C57.6806 38.6082 57.7654 38.7338 57.8069 38.8758C57.8485 39.0179 57.8446 39.1694 57.796 39.3092C57.7473 39.4489 57.6562 39.57 57.5355 39.6556C57.4147 39.7412 57.2702 39.7869 57.1222 39.7865V39.7865Z" fill="#332F2E"/>
<path d="M40.2949 21.2337C40.5182 21.2337 40.7096 21.0423 40.7096 20.7871C40.7096 20.5638 40.5182 20.3724 40.2949 20.3724C39.9121 20.3724 36.4668 20.2448 36.4668 16.2253C36.4668 16.002 36.2754 15.8105 36.0521 15.8105C35.8287 15.8105 35.6373 16.002 35.6373 16.2253C35.6373 20.2448 32.1921 20.3724 31.8092 20.3724C31.7773 20.3724 31.7773 20.3724 31.7773 20.3724C31.554 20.4043 31.3945 20.5638 31.3945 20.7871C31.3945 21.0104 31.5859 21.2018 31.8092 21.2018C32.224 21.2018 35.6373 21.3294 35.6373 25.3489C35.6373 25.5722 35.8287 25.7636 36.0521 25.7636C36.2435 25.7955 36.4349 25.6041 36.4349 25.3808C36.4349 21.3613 39.8802 21.2337 40.263 21.2337H40.2949ZM36.0202 23.052C35.5097 21.8398 34.5846 21.1699 33.7233 20.7871C34.6484 20.4043 35.5097 19.6705 36.0202 18.5221C36.5306 19.7343 37.4557 20.4043 38.317 20.7871C37.3919 21.1699 36.5306 21.9036 36.0202 23.052Z" fill="#332F2E"/>
<path d="M34.3817 20.0303L32.7866 20.7082L33.9829 21.386L36.0565 23.6989L36.7742 22.5424L39.087 20.8677L38.0503 20.0303L36.0565 17.877L34.3817 20.0303Z" fill="#332F2E"/>
<path d="M62.4815 27.2935C62.627 27.2935 62.7518 27.1687 62.7518 27.0024C62.7518 26.8569 62.627 26.7322 62.4815 26.7322C62.2321 26.7322 59.9872 26.6491 59.9872 24.03C59.9872 23.8845 59.8624 23.7598 59.7169 23.7598C59.5714 23.7598 59.4467 23.8845 59.4467 24.03C59.4467 26.6491 57.2018 26.7322 56.9524 26.7322C56.9316 26.7322 56.9316 26.7322 56.9316 26.7322C56.7861 26.753 56.6821 26.8569 56.6821 27.0024C56.6821 27.1479 56.8068 27.2727 56.9524 27.2727C57.2226 27.2727 59.4467 27.3558 59.4467 29.9749C59.4467 30.1204 59.5714 30.2451 59.7169 30.2451C59.8417 30.2659 59.9664 30.1412 59.9664 29.9957C59.9664 27.3766 62.2113 27.2935 62.4607 27.2935H62.4815ZM59.6962 28.4783C59.3636 27.6884 58.7608 27.2519 58.1995 27.0024C58.8023 26.753 59.3636 26.2749 59.6962 25.5266C60.0287 26.3165 60.6315 26.753 61.1928 27.0024C60.59 27.2519 60.0287 27.73 59.6962 28.4783Z" fill="#332F2E"/>
<path d="M58.6316 26.5085L57.5923 26.9503L58.3718 27.392L59.7229 28.899L60.1906 28.1455L61.6976 27.0542L61.022 26.5085L59.7229 25.1055L58.6316 26.5085Z" fill="#332F2E"/>
<path d="M92.3916 36.4115C92.3013 36.2311 92.0758 36.1408 91.8953 36.0957C90.8576 36.0957 81.9245 35.7348 81.9245 25.358C81.9245 25.0422 81.6538 24.7715 81.338 24.7715C81.0222 24.7715 80.7515 25.0422 80.7515 25.358C80.7515 35.7348 71.8184 36.0957 70.8259 36.0957C70.6905 36.0957 70.5552 36.1408 70.4649 36.2311C70.3747 36.2762 70.3296 36.3664 70.2845 36.4115C70.1942 36.592 70.1942 36.8176 70.2845 36.9981C70.3747 37.1785 70.6003 37.3139 70.8259 37.3139C70.8259 37.3139 70.8259 37.3139 70.871 37.3139C71.9087 37.3139 80.7966 37.6748 80.7966 48.0516C80.7966 48.3674 81.0673 48.6381 81.3831 48.6381C81.699 48.6381 81.9697 48.3674 81.9697 48.0516C81.9697 37.7199 90.8576 37.3139 91.8953 37.3139C92.1209 37.3139 92.3013 37.1785 92.4367 36.9981C92.5269 36.8176 92.5269 36.592 92.3916 36.4115ZM81.338 43.6302C80.0296 39.3441 76.8264 37.4943 74.2998 36.6822C76.8264 35.8701 80.0296 34.0204 81.338 29.7343C82.6464 34.0204 85.8497 35.8701 88.3762 36.6822C85.8497 37.4943 82.6464 39.3441 81.338 43.6302Z" fill="#332F2E"/>
<path d="M77.1786 34.761L73.2666 36.4289L76.2006 38.0968L81.2862 43.7874L83.0466 40.9421L88.719 36.8214L86.1762 34.761L81.2862 29.4629L77.1786 34.761Z" fill="#332F2E"/>
<path d="M21.0534 36.1967C20.4705 36.1967 15.224 36.0024 15.224 29.8815C15.224 29.5415 14.9325 29.25 14.5925 29.25C14.2524 29.25 13.9609 29.5415 13.9609 29.8815C13.9609 36.0024 8.71446 36.1967 8.13152 36.1967C8.08294 36.1967 8.08294 36.1967 8.08294 36.1967C7.74289 36.2453 7.5 36.4882 7.5 36.8282C7.5 37.1683 7.79147 37.4598 8.13152 37.4598C8.76304 37.4598 13.9609 37.6541 13.9609 43.775C13.9609 44.115 14.2524 44.4065 14.5925 44.4065C14.8839 44.5036 15.1754 44.2122 15.1754 43.8235C15.1754 37.7027 20.4219 37.5083 21.0048 37.5083H21.0534C21.3934 37.5083 21.6849 37.2169 21.6849 36.8282C21.6849 36.4882 21.3934 36.1967 21.0534 36.1967ZM14.5439 40.3259C13.718 38.4799 12.3578 37.4598 11.0462 36.8768C12.455 36.2939 13.7666 35.1766 14.5439 33.4277C15.3211 35.2737 16.7299 36.2939 18.0415 36.8768C16.6328 37.4598 15.3211 38.5771 14.5439 40.3259Z" fill="#332F2E"/>
<path d="M12.5341 35.7557L10.5356 36.6183L12.0345 37.4809L14.6325 40.4238L15.5318 38.9523L18.4296 36.8212L17.1306 35.7557L14.6325 33.0156L12.5341 35.7557Z" fill="#332F2E"/>
</svg>
