<svg width="100" height="75" viewBox="0 0 100 75" fill="none" xmlns="http://www.w3.org/2000/svg">
<path d="M15.9412 56.8998H16.8509C17.359 56.8998 17.8485 57.0317 18.1685 57.2196L25.9237 63.8141C26.6578 64.2658 27.4859 64.4918 28.333 64.4918H39.5327C40.5724 64.4918 41.415 63.5861 41.415 62.5467C41.415 61.507 40.5724 60.6644 39.5327 60.6644H31.0623C30.3094 60.6644 29.594 60.3632 29.067 59.8362L23.9659 54.7351C23.6084 54.3776 23.6084 53.7751 23.9659 53.4175C24.3235 53.0599 24.8696 53.0411 25.2461 53.3798L30.1023 58.2363C30.7393 58.874 31.8709 59.0774 32.7564 58.2363C33.4904 57.5022 33.4904 56.2974 32.7564 55.5633L26.0742 48.8623C25.1593 47.9473 23.9662 47.4883 22.7613 47.4883H15.9412C15.414 47.4883 15 47.9022 15 48.4294V55.9586C15 56.4856 15.414 56.8998 15.9412 56.8998V56.8998Z" fill="#332F2E"/>
<path d="M38.1215 58.7824C38.9011 58.7824 39.5332 58.1503 39.5332 57.3707C39.5332 56.5911 38.9011 55.959 38.1215 55.959H35.0573C35.1355 56.2641 35.1897 56.5766 35.1897 56.9001C35.1897 57.5719 35.0159 58.2173 34.6904 58.7824H38.1215Z" fill="#332F2E"/>
<path d="M36.2384 51.252H31.1157L33.9311 54.0754H36.2384C37.018 54.0754 37.6501 53.4433 37.6501 52.6637C37.6501 51.884 37.018 51.252 36.2384 51.252V51.252Z" fill="#332F2E"/>
<path d="M84.0588 18.0998H83.149C82.6409 18.0998 82.1515 17.9679 81.8314 17.7799L74.0762 11.2482C73.3422 10.7965 72.514 10.5078 71.667 10.5078H60.4673C59.4276 10.5078 58.585 11.4134 58.585 12.4529C58.585 13.4925 59.4276 14.3352 60.4673 14.3352H68.9376C69.6905 14.3352 70.406 14.6364 70.9329 15.1633L76.034 20.2644C76.3916 20.622 76.3916 21.2244 76.034 21.582C75.6764 21.9396 75.1304 21.9585 74.7539 21.6198L69.8977 16.7633C69.2607 16.1256 68.1291 15.9221 67.2436 16.7633C66.5095 17.4973 66.5095 18.7022 67.2436 19.4363L73.9257 26.1373C74.8407 27.052 76.0338 27.5113 77.2386 27.5113H84.0588C84.586 27.5113 84.9999 27.0973 84.9999 26.5701V19.0409C84.9999 18.514 84.586 18.0998 84.0588 18.0998V18.0998Z" fill="#332F2E"/>
<path d="M61.8785 16.2168C61.0989 16.2168 60.4668 16.8489 60.4668 17.6285C60.4668 18.4082 61.0989 19.0403 61.8785 19.0403H64.9427C64.8645 18.7351 64.8103 18.4226 64.8103 18.0991C64.8103 17.4273 64.9841 16.782 65.3096 16.2168H61.8785Z" fill="#332F2E"/>
<path d="M62.3491 22.3356C62.3491 23.1152 62.9812 23.7473 63.7608 23.7473H68.8835L66.0681 20.9238H63.7608C62.9812 20.9238 62.3491 21.5559 62.3491 22.3356Z" fill="#332F2E"/>
<path d="M36.4048 36.6504C35.3268 36.6504 34.2729 36.9701 33.3766 37.569C32.4802 38.1679 31.7816 39.0192 31.369 40.0152C30.9565 41.0112 30.8485 42.1071 31.0588 43.1645C31.2692 44.2218 31.7883 45.193 32.5506 45.9553C33.3129 46.7176 34.2841 47.2368 35.3414 47.4471C36.3988 47.6574 37.4947 47.5494 38.4907 47.1369C39.4867 46.7243 40.338 46.0257 40.9369 45.1293C41.5358 44.233 41.8555 43.1791 41.8555 42.1011C41.8539 40.656 41.2791 39.2705 40.2572 38.2487C39.2354 37.2268 37.8499 36.652 36.4048 36.6504V36.6504ZM36.4048 44.6168C35.9072 44.6168 35.4209 44.4693 35.0072 44.1928C34.5934 43.9164 34.271 43.5235 34.0806 43.0638C33.8902 42.6041 33.8404 42.0983 33.9374 41.6103C34.0345 41.1223 34.2741 40.6741 34.6259 40.3222C34.9778 39.9704 35.426 39.7308 35.914 39.6337C36.402 39.5367 36.9078 39.5865 37.3675 39.7769C37.8272 39.9673 38.2201 40.2897 38.4965 40.7034C38.773 41.1172 38.9205 41.6035 38.9205 42.1011C38.9205 42.7683 38.6555 43.4082 38.1837 43.88C37.7119 44.3518 37.072 44.6168 36.4048 44.6168V44.6168Z" fill="#332F2E"/>
<path d="M66.5933 36.6504C65.5152 36.6504 64.4614 36.9701 63.565 37.569C62.6687 38.1679 61.97 39.0192 61.5575 40.0152C61.1449 41.0112 61.037 42.1071 61.2473 43.1645C61.4576 44.2218 61.9768 45.193 62.7391 45.9553C63.5013 46.7176 64.4726 47.2368 65.5299 47.4471C66.5872 47.6574 67.6832 47.5494 68.6792 47.1369C69.6752 46.7243 70.5265 46.0257 71.1254 45.1293C71.7243 44.233 72.044 43.1791 72.044 42.1011C72.0424 40.656 71.4676 39.2705 70.4457 38.2487C69.4239 37.2268 68.0384 36.652 66.5933 36.6504V36.6504ZM66.5933 44.6168C66.0957 44.6168 65.6093 44.4693 65.1956 44.1928C64.7819 43.9164 64.4595 43.5235 64.2691 43.0638C64.0787 42.6041 64.0288 42.0983 64.1259 41.6103C64.223 41.1223 64.4626 40.6741 64.8144 40.3222C65.1662 39.9704 65.6145 39.7308 66.1025 39.6337C66.5905 39.5367 67.0963 39.5865 67.556 39.7769C68.0157 39.9673 68.4086 40.2897 68.685 40.7034C68.9615 41.1172 69.109 41.6035 69.109 42.1011C69.109 42.7683 68.8439 43.4082 68.3722 43.88C67.9004 44.3518 67.2605 44.6168 66.5933 44.6168Z" fill="#332F2E"/>
<path d="M73.8675 32.1471L64.0772 30.361L55.7423 23.4454C54.9163 22.7668 53.8806 22.3955 52.8116 22.3945H40.5322C39.8403 22.3929 39.1569 22.5478 38.5332 22.8475C37.9095 23.1473 37.3617 23.5842 36.9307 24.1256L31.6069 30.361H28.0187C27.0182 30.3621 26.059 30.76 25.3516 31.4674C24.6442 32.1749 24.2462 33.1341 24.2451 34.1345V38.7467C24.2465 39.9695 24.7328 41.1418 25.5975 42.0064C26.4621 42.8711 27.6345 43.3574 28.8573 43.3588H29.8158C29.6298 42.3884 29.6604 41.3889 29.9054 40.4318C30.1504 39.4746 30.6039 38.5834 31.2333 37.8218C31.8628 37.0602 32.6527 36.447 33.5466 36.0261C34.4405 35.6052 35.4163 35.3869 36.4044 35.3869C37.3924 35.3869 38.3683 35.6052 39.2622 36.0261C40.1561 36.447 40.946 37.0602 41.5754 37.8218C42.2049 38.5834 42.6583 39.4746 42.9034 40.4318C43.1484 41.3889 43.179 42.3884 42.9929 43.3588H60.0044C59.8183 42.3884 59.8489 41.3889 60.0939 40.4318C60.339 39.4746 60.7924 38.5834 61.4219 37.8218C62.0513 37.0602 62.8412 36.447 63.7351 36.0261C64.629 35.6052 65.6049 35.3869 66.5929 35.3869C67.581 35.3869 68.5568 35.6052 69.4507 36.0261C70.3446 36.447 71.1345 37.0602 71.764 37.8218C72.3934 38.5834 72.8469 39.4746 73.0919 40.4318C73.3369 41.3889 73.3675 42.3884 73.1815 43.3588H73.3015C74.302 43.3577 75.2611 42.9598 75.9686 42.2523C76.676 41.5449 77.0739 40.5857 77.075 39.5852V35.8779C77.0796 34.974 76.7576 34.0988 76.1682 33.4133C75.5789 32.7278 74.7619 32.2782 73.8675 32.1471V32.1471ZM42.6937 29.1031C42.6937 29.4367 42.5611 29.7567 42.3252 29.9925C42.0894 30.2284 41.7694 30.361 41.4358 30.361H35.906C35.7857 30.361 35.668 30.3266 35.5667 30.2618C35.4654 30.197 35.3848 30.1045 35.3344 29.9953C35.2841 29.8861 35.2661 29.7647 35.2826 29.6456C35.2992 29.5265 35.3495 29.4146 35.4277 29.3232L39.0876 25.036C39.2058 24.8979 39.3525 24.787 39.5176 24.711C39.6828 24.635 39.8624 24.5957 40.0442 24.5958H41.4358C41.7694 24.5958 42.0894 24.7283 42.3252 24.9642C42.5611 25.2001 42.6937 25.52 42.6937 25.8536V29.1031ZM48.9829 34.9731H47.3058C46.9722 34.9731 46.6523 34.8406 46.4164 34.6047C46.1805 34.3688 46.0479 34.0488 46.0479 33.7152C46.0479 33.3816 46.1805 33.0617 46.4164 32.8258C46.6523 32.5899 46.9722 32.4574 47.3058 32.4574H48.9829C49.3165 32.4574 49.6365 32.5899 49.8724 32.8258C50.1083 33.0617 50.2408 33.3816 50.2408 33.7152C50.2408 34.0488 50.1083 34.3688 49.8724 34.6047C49.6365 34.8406 49.3165 34.9731 48.9829 34.9731ZM58.8864 30.3918L46.8836 30.3639C46.5505 30.3631 46.2313 30.2303 45.996 29.9944C45.7608 29.7586 45.6287 29.4391 45.6287 29.106V25.8536C45.6287 25.52 45.7612 25.2001 45.9971 24.9642C46.233 24.7283 46.5529 24.5958 46.8865 24.5958H52.9188C53.2015 24.5958 53.476 24.6911 53.6979 24.8662L59.2773 29.2687C59.3802 29.3497 59.4552 29.4608 59.4919 29.5864C59.5286 29.712 59.5253 29.846 59.4822 29.9696C59.4392 30.0933 59.3586 30.2004 59.2518 30.276C59.145 30.3517 59.0173 30.3922 58.8864 30.3918V30.3918Z" fill="#332F2E"/>
</svg>
