<svg width="100" height="75" viewBox="0 0 100 75" fill="none" xmlns="http://www.w3.org/2000/svg">
<path d="M37.8827 46.2852C36.6638 46.2852 35.4723 46.6466 34.4588 47.3238C33.4453 48.001 32.6553 48.9635 32.1889 50.0897C31.7224 51.2158 31.6003 52.455 31.8381 53.6505C32.076 54.846 32.6629 55.9441 33.5248 56.8061C34.3867 57.668 35.4849 58.2549 36.6804 58.4927C37.8759 58.7305 39.1151 58.6085 40.2412 58.142C41.3673 57.6756 42.3299 56.8856 43.0071 55.8721C43.6843 54.8586 44.0457 53.6671 44.0457 52.4482C44.0439 50.8142 43.394 49.2477 42.2386 48.0923C41.0832 46.9369 39.5167 46.287 37.8827 46.2852V46.2852ZM37.8827 55.2926C37.3201 55.2926 36.7702 55.1258 36.3024 54.8132C35.8347 54.5007 35.4701 54.0564 35.2548 53.5367C35.0395 53.0169 34.9832 52.445 35.0929 51.8932C35.2027 51.3415 35.4736 50.8346 35.8714 50.4368C36.2692 50.039 36.776 49.7681 37.3278 49.6584C37.8796 49.5486 38.4515 49.6049 38.9713 49.8202C39.491 50.0355 39.9353 50.4001 40.2478 50.8679C40.5604 51.3356 40.7272 51.8856 40.7272 52.4482C40.7272 53.2026 40.4275 53.9261 39.8941 54.4595C39.3606 54.9929 38.6371 55.2926 37.8827 55.2926V55.2926Z" fill="#332F2E"/>
<path d="M72.0126 46.2852C70.7937 46.2852 69.6021 46.6466 68.5886 47.3238C67.5751 48.001 66.7852 48.9635 66.3187 50.0897C65.8523 51.2158 65.7302 52.455 65.968 53.6505C66.2058 54.846 66.7928 55.9441 67.6547 56.8061C68.5166 57.668 69.6148 58.2549 70.8103 58.4927C72.0058 58.7305 73.2449 58.6085 74.3711 58.142C75.4972 57.6756 76.4598 56.8856 77.137 55.8721C77.8142 54.8586 78.1756 53.6671 78.1756 52.4482C78.1738 50.8142 77.5239 49.2477 76.3685 48.0923C75.2131 46.9369 73.6466 46.287 72.0126 46.2852V46.2852ZM72.0126 55.2926C71.45 55.2926 70.9001 55.1258 70.4323 54.8132C69.9645 54.5007 69.6 54.0564 69.3847 53.5367C69.1694 53.0169 69.1131 52.445 69.2228 51.8932C69.3326 51.3415 69.6035 50.8346 70.0013 50.4368C70.3991 50.039 70.9059 49.7681 71.4577 49.6584C72.0095 49.5486 72.5814 49.6049 73.1011 49.8202C73.6209 50.0355 74.0651 50.4001 74.3777 50.8679C74.6902 51.3356 74.8571 51.8856 74.8571 52.4482C74.8571 53.2026 74.5574 53.9261 74.0239 54.4595C73.4905 54.9929 72.767 55.2926 72.0126 55.2926Z" fill="#332F2E"/>
<path d="M80.2403 41.1931L69.1706 39.1735L59.7466 31.3542C58.8126 30.587 57.6416 30.1671 56.4329 30.166H42.5488C41.7664 30.1642 40.9937 30.3393 40.2885 30.6782C39.5833 31.0171 38.9639 31.5111 38.4766 32.1233L32.4571 39.1735H28.4C27.2688 39.1747 26.1843 39.6247 25.3844 40.4246C24.5845 41.2245 24.1346 42.309 24.1333 43.4402V48.655C24.1348 50.0376 24.6848 51.3631 25.6624 52.3408C26.64 53.3184 27.9656 53.8683 29.3481 53.8699H30.432C30.2216 52.7727 30.2562 51.6426 30.5333 50.5603C30.8103 49.4781 31.323 48.4704 32.0347 47.6093C32.7464 46.7481 33.6395 46.0548 34.6503 45.5789C35.661 45.103 36.7644 44.8563 37.8815 44.8563C38.9987 44.8563 40.1021 45.103 41.1128 45.5789C42.1235 46.0548 43.0166 46.7481 43.7283 47.6093C44.44 48.4704 44.9527 49.4781 45.2298 50.5603C45.5069 51.6426 45.5414 52.7727 45.3311 53.8699H64.5656C64.3552 52.7727 64.3898 51.6426 64.6668 50.5603C64.9439 49.4781 65.4566 48.4704 66.1683 47.6093C66.88 46.7481 67.7731 46.0548 68.7838 45.5789C69.7945 45.103 70.8979 44.8563 72.0151 44.8563C73.1322 44.8563 74.2356 45.103 75.2463 45.5789C76.2571 46.0548 77.1502 46.7481 77.8619 47.6093C78.5736 48.4704 79.0863 49.4781 79.3633 50.5603C79.6404 51.6426 79.675 52.7727 79.4646 53.8699H79.6003C80.7315 53.8686 81.816 53.4187 82.6159 52.6188C83.4158 51.8189 83.8658 50.7344 83.867 49.6032V45.4114C83.8721 44.3893 83.508 43.3997 82.8417 42.6247C82.1754 41.8497 81.2516 41.3413 80.2403 41.1931V41.1931ZM44.9927 37.7513C44.9927 38.1285 44.8428 38.4902 44.5761 38.7569C44.3094 39.0236 43.9477 39.1735 43.5705 39.1735H37.318C37.182 39.1736 37.0489 39.1347 36.9343 39.0614C36.8198 38.9881 36.7287 38.8835 36.6718 38.76C36.6148 38.6366 36.5945 38.4993 36.6132 38.3647C36.6319 38.23 36.6888 38.1035 36.7772 38.0002L40.9154 33.1527C41.049 32.9965 41.2149 32.8711 41.4016 32.7852C41.5883 32.6993 41.7914 32.6548 41.997 32.6549H43.5705C43.9477 32.6549 44.3094 32.8048 44.5761 33.0715C44.8428 33.3382 44.9927 33.7 44.9927 34.0772V37.7513ZM52.1038 44.3883H50.2075C49.8303 44.3883 49.4686 44.2385 49.2019 43.9718C48.9351 43.7051 48.7853 43.3433 48.7853 42.9661C48.7853 42.5889 48.9351 42.2272 49.2019 41.9604C49.4686 41.6937 49.8303 41.5439 50.2075 41.5439H52.1038C52.481 41.5439 52.8428 41.6937 53.1095 41.9604C53.3762 42.2272 53.5261 42.5889 53.5261 42.9661C53.5261 43.3433 53.3762 43.7051 53.1095 43.9718C52.8428 44.2385 52.481 44.3883 52.1038 44.3883ZM63.3014 39.2083L49.7301 39.1768C49.3535 39.1759 48.9926 39.0257 48.7266 38.7591C48.4606 38.4925 48.3112 38.1312 48.3112 37.7546V34.0772C48.3112 33.7 48.4611 33.3382 48.7278 33.0715C48.9945 32.8048 49.3563 32.6549 49.7335 32.6549H56.554C56.8737 32.655 57.184 32.7627 57.435 32.9607L63.7435 37.9385C63.8598 38.0301 63.9446 38.1557 63.9861 38.2977C64.0277 38.4398 64.0238 38.5913 63.9752 38.731C63.9265 38.8708 63.8354 38.9919 63.7147 39.0775C63.5939 39.163 63.4494 39.2088 63.3014 39.2083V39.2083Z" fill="#332F2E"/>
<path d="M17.5004 30.3887C13.3654 30.3887 10 33.7526 10 37.8878C10 42.0239 13.3656 45.3887 17.5004 45.3887C21.6354 45.3887 25 42.0239 25 37.8878C25 33.7526 21.6352 30.3887 17.5004 30.3887ZM18.0787 41.8193V43.1296H16.8196V41.9087C15.959 41.87 15.1241 41.6389 14.6363 41.357L15.0214 39.8534C15.5611 40.1486 16.319 40.419 17.1534 40.419C17.8859 40.419 18.3873 40.1372 18.3873 39.6223C18.3873 39.1348 17.9755 38.8265 17.0251 38.5052C15.6507 38.0422 14.7127 37.4012 14.7127 36.1547C14.7127 35.0244 15.5097 34.1371 16.8838 33.8685V32.6476H18.1423V33.7779C19.003 33.8166 19.5814 33.9964 20.0047 34.2021L19.6328 35.6533C19.2987 35.5129 18.7071 35.216 17.7832 35.216C16.9478 35.216 16.6787 35.576 16.6787 35.9362C16.6787 36.3604 17.1279 36.6292 18.2196 37.0411C19.7472 37.5805 20.3647 38.2866 20.3647 39.4433C20.3647 40.5851 19.5555 41.5618 18.0787 41.8193Z" fill="#332F2E"/>
<path d="M37.0003 16.3887C34.2436 16.3887 32 18.6313 32 21.3881C32 24.1455 34.2437 26.3887 37.0003 26.3887C39.7569 26.3887 42 24.1455 42 21.3881C42 18.6313 39.7568 16.3887 37.0003 16.3887ZM37.3858 24.0091V24.8826H36.5464V24.0687C35.9727 24.0429 35.4161 23.8888 35.0909 23.7009L35.3476 22.6985C35.7074 22.8953 36.2127 23.0756 36.7689 23.0756C37.2572 23.0756 37.5916 22.8877 37.5916 22.5445C37.5916 22.2194 37.317 22.0139 36.6834 21.7997C35.7671 21.4911 35.1418 21.0637 35.1418 20.2327C35.1418 19.4791 35.6731 18.8876 36.5892 18.7085V17.8946H37.4282V18.6481C38.002 18.674 38.3876 18.7939 38.6698 18.9309L38.4218 19.8984C38.1991 19.8048 37.8047 19.6069 37.1888 19.6069C36.6318 19.6069 36.4525 19.8469 36.4525 20.0871C36.4525 20.3699 36.752 20.549 37.4797 20.8236C38.4982 21.1832 38.9098 21.654 38.9098 22.4251C38.9098 23.1863 38.3703 23.8374 37.3858 24.0091Z" fill="#332F2E"/>
<path d="M62.5002 22C60.5705 22 59 23.5698 59 25.4996C59 27.4298 60.5706 29 62.5002 29C64.4299 29 66 27.4298 66 25.4996C66 23.5698 64.4298 22 62.5002 22ZM62.7701 27.3343V27.9458H62.1825V27.376C61.7809 27.3579 61.3912 27.2501 61.1636 27.1186L61.3433 26.4169C61.5952 26.5546 61.9489 26.6808 62.3382 26.6808C62.6801 26.6808 62.9141 26.5493 62.9141 26.309C62.9141 26.0815 62.7219 25.9376 62.2784 25.7877C61.637 25.5717 61.1993 25.2725 61.1993 24.6908C61.1993 24.1633 61.5712 23.7492 62.2124 23.6239V23.0541H62.7998V23.5816C63.2014 23.5997 63.4713 23.6836 63.6689 23.7796L63.4953 24.4568C63.3394 24.3913 63.0633 24.2527 62.6321 24.2527C62.2423 24.2527 62.1167 24.4208 62.1167 24.5889C62.1167 24.7868 62.3264 24.9122 62.8358 25.1045C63.5487 25.3562 63.8369 25.6857 63.8369 26.2255C63.8369 26.7583 63.4592 27.2141 62.7701 27.3343Z" fill="black"/>
<path d="M82.5004 24C78.3654 24 75 27.3639 75 31.4991C75 35.6352 78.3656 39 82.5004 39C86.6354 39 90 35.6352 90 31.4991C90 27.3639 86.6352 24 82.5004 24ZM83.0787 35.4306V36.7409H81.8196V35.52C80.959 35.4813 80.1241 35.2503 79.6363 34.9684L80.0214 33.4647C80.5611 33.7599 81.319 34.0304 82.1534 34.0304C82.8859 34.0304 83.3873 33.7485 83.3873 33.2337C83.3873 32.7462 82.9755 32.4378 82.0251 32.1165C80.6507 31.6536 79.7127 31.0125 79.7127 29.766C79.7127 28.6357 80.5097 27.7484 81.8838 27.4798V26.2589H83.1423V27.3892C84.003 27.4279 84.5814 27.6078 85.0047 27.8134L84.6328 29.2647C84.2987 29.1242 83.7071 28.8273 82.7832 28.8273C81.9478 28.8273 81.6787 29.1874 81.6787 29.5476C81.6787 29.9718 82.1279 30.2405 83.2196 30.6524C84.7472 31.1918 85.3647 31.8979 85.3647 33.0547C85.3647 34.1964 84.5555 35.1731 83.0787 35.4306Z" fill="#332F2E"/>
</svg>
